
<svg version="1.1" id="Layer_1" xmlns="http://www.w3.org/2000/svg"  x="0px" y="0px"
	 viewBox="0 0 80.2 80"  xml:space="preserve">
<g>
	<path fill="#E9E9ED" d="M53.1,1.1c0,0,0-0.1,0.2-0.4C53.1,1,53.1,1.1,53.1,1.1z"/>
	<path fill="#E9E9ED" d="M80.2,40.1C80.2,18,62.2,0,40.1,0S0,18,0,40.1c0,20.6,15.5,37.6,35.5,39.8V42.2H22.5v-6.6L13.8,42
		h-0.6l-0.4,0.3H7.5l32.5-24.8l13,9.9h0.5l0.6-17.3h-1.2V8.6h5.7v1.5h-1.3l0.2,4.5l0,0l0.4,12.8h1.5v4.8l13.3,10.1h-5.1L67,42h-0.9
		l-9-6.7v6.9H43.9V80C64.3,78.1,80.2,60.9,80.2,40.1z"/>
	<polygon fill="#E9E9ED" points="40.1,22.5 23,35.2 57,35.2 	"/>
</g>
</svg>
