
<svg version="1.1" id="Layer_1" xmlns="http://www.w3.org/2000/svg" 
	 viewBox="0 0 688.3 83.6">
<g>
	<path fill="currentColor" d="M23,13.8H0V1.4h61.1v12.4H37.8v68.5H23V13.8z"/>
	<path fill="currentColor" d="M139,41c0,27.1-16.4,42.6-38.6,42.6C77.4,83.6,63,66.1,63,42.5C63,17.5,78.7,0,101.5,0
		C125,0,139,17.9,139,41z M78.6,42.1c0,16.6,8.3,29.6,22.4,29.6c14.3,0,22.3-13.3,22.3-30.2c0-15.2-7.6-29.6-22.3-29.6
		C86.4,11.9,78.6,25.4,78.6,42.1z"/>
	<path fill="currentColor" d="M151.7,2.6c5.6-1.1,13.8-1.8,22.3-1.8c11.6,0,19.4,1.9,25,6.5c4.4,3.7,7,9.4,7,16.3
		c0,10.4-7.1,17.5-14.8,20.2v0.4c5.9,2.2,9.4,7.8,11.3,15.6c2.6,10.1,4.8,19.4,6.4,22.6h-15.1c-1.2-2.4-3.2-9-5.4-19.1
		c-2.4-10.6-6.1-13.9-14.5-14.2h-7.4v33.2h-14.6V2.6z M166.3,38.3h8.8c10,0,16.1-5.3,16.1-13.3c0-8.8-6.1-13-15.7-13
		c-4.7,0-7.7,0.4-9.1,0.7V38.3z"/>
	<path fill="currentColor" d="M220,2.6c5.6-1.1,13.8-1.8,22.3-1.8c11.6,0,19.4,1.9,25,6.5c4.4,3.7,7,9.4,7,16.3
		c0,10.4-7.1,17.5-14.8,20.2v0.4c5.9,2.2,9.4,7.8,11.3,15.6c2.6,10.1,4.8,19.4,6.4,22.6H262c-1.2-2.4-3.2-9-5.4-19.1
		c-2.4-10.6-6.1-13.9-14.5-14.2h-7.4v33.2H220V2.6z M234.6,38.3h8.8c10,0,16.1-5.3,16.1-13.3c0-8.8-6.1-13-15.7-13
		c-4.7,0-7.7,0.4-9.1,0.7V38.3z"/>
	<path fill="currentColor" d="M333.5,46.4H303v23.8h34.1v12.1h-48.8V1.4h47v12.1H303v20.9h30.5V46.4z"/>
	<path fill="currentColor" d="M408,80c-3.5,1.7-11.2,3.6-21,3.6c-25.7,0-41.3-16.1-41.3-40.8c0-26.6,18.6-42.7,43.3-42.7
		c9.7,0,16.6,2,19.6,3.6l-3.1,11.8c-3.8-1.7-9.2-3.1-15.8-3.1c-16.4,0-28.3,10.3-28.3,29.8c0,17.9,10.3,29.2,28.2,29.2
		c5.9,0,12.1-1.2,16.1-2.9L408,80z"/>
	<path fill="currentColor" d="M437.6,59.4l-7,22.9h-15.2l25.9-80.9h18.8l26.3,80.9h-16l-7.3-22.9H437.6z M460.8,48.2l-6.4-19.9
		c-1.6-4.9-2.9-10.4-4.1-15.1h-0.2c-1.2,4.7-2.5,10.3-3.8,15.1L440,48.2H460.8z"/>
	<path fill="currentColor" d="M497.8,1.4h46.8v12.1h-32v22.3h29.8v12h-29.8v34.4h-14.8V1.4z"/>
	<path  fill="#B04325"d="M573.6,1.4v32.4h34.2V1.4h14.8v80.9h-14.8V46.7h-34.2v35.6h-14.8V1.4H573.6z"/>
	<path  fill="#B04325" d="M684.7,46.4h-30.5v23.8h34.1v12.1h-48.8V1.4h47v12.1h-32.3v20.9h30.5V46.4z"/>
</g>
</svg>
