<svg version="1.1" id="Layer_1" xmlns="http://www.w3.org/2000/svg"  x="0px" y="0px"
	 viewBox="0 0 546.5 87.8" >
<g>
	<path fill="#000" d="M23,18H0V5.6h61.1V18H37.8v68.5H23V18z"/>
	<path fill="#000" d="M116.3,56.8c0,21.5-15.1,31.1-30,31.1C69.8,87.8,57,76.6,57,57.7c0-19.2,12.6-31,30.2-31
		C104.6,26.8,116.3,39,116.3,56.8z M72.2,57.4c0,11.3,5.6,19.8,14.5,19.8c8.4,0,14.3-8.2,14.3-20c0-9.1-4.1-19.7-14.2-19.7
		C76.4,37.4,72.2,47.6,72.2,57.4z"/>
	<path fill="#000" d="M128.4,46.9c0-7.9-0.1-13.7-0.5-18.8h12.7l0.6,11h0.4c2.9-8.2,9.7-12.4,16.1-12.4
		c1.4,0,2.3,0.1,3.5,0.4v13.8c-1.3-0.2-2.6-0.4-4.4-0.4c-7,0-11.9,4.4-13.2,11.2c-0.2,1.3-0.4,2.9-0.4,4.4v30.4h-14.8V46.9z"/>
	<path fill="#000" d="M171.1,46.9c0-7.9-0.1-13.7-0.5-18.8h12.7l0.6,11h0.4c2.9-8.2,9.7-12.4,16.1-12.4
		c1.4,0,2.3,0.1,3.5,0.4v13.8c-1.3-0.2-2.6-0.4-4.4-0.4c-7,0-11.9,4.4-13.2,11.2c-0.2,1.3-0.4,2.9-0.4,4.4v30.4h-14.8V46.9z"/>
	<path fill="#000" d="M223.2,61.4c0.4,10.6,8.5,15.1,18,15.1c6.8,0,11.6-1.1,16.2-2.6l2.2,10.1c-5,2.2-12,3.7-20.4,3.7
		c-19,0-30.1-11.6-30.1-29.5c0-16.2,9.8-31.4,28.6-31.4c19,0,25.2,15.6,25.2,28.4c0,2.8-0.2,4.9-0.5,6.2H223.2z M248.9,51.1
		c0.1-5.4-2.3-14.3-12.1-14.3c-9.1,0-13,8.3-13.6,14.3H248.9z"/>
	<path fill="#000" d="M317.6,84.7c-3.1,1.4-9.2,3-16.6,3C282.8,87.7,271,76,271,57.8c0-17.5,12-31.1,32.5-31.1
		c5.4,0,10.9,1.2,14.3,2.6l-2.6,11.2c-2.4-1.2-5.9-2.3-11.2-2.3c-11.3,0-18,8.3-17.9,19c0,12,7.8,18.8,17.9,18.8
		c5,0,8.8-1.1,11.6-2.3L317.6,84.7z"/>
	<path fill="#000" d="M373.9,72.5c0,5.3,0.2,10.4,1,14h-13.3l-1.1-6.5h-0.4c-3.5,4.6-9.6,7.8-17.3,7.8
		c-11.8,0-18.4-8.5-18.4-17.4c0-14.6,13.1-22.2,34.7-22.1v-1c0-3.8-1.6-10.2-11.9-10.2c-5.8,0-11.8,1.8-15.7,4.3l-2.9-9.6
		c4.3-2.6,11.9-5.2,21.1-5.2c18.7,0,24.1,11.9,24.1,24.7V72.5z M359.5,58c-10.4-0.1-20.4,2-20.4,10.9c0,5.8,3.7,8.4,8.4,8.4
		c6,0,10.2-3.8,11.6-8c0.4-1.1,0.4-2.2,0.4-3.2V58z"/>
	<path fill="#000" d="M391.2,86.5V39.1h-7.9v-11h7.9v-2.5c0-7.6,2-15.1,7.1-19.9c4.3-4.1,10.1-5.6,15.2-5.6
		c4,0,7.1,0.7,9.4,1.4l-1,11.4c-1.7-0.6-3.6-1.1-6.4-1.1c-7.3,0-9.7,6.1-9.7,13.3v3h12.7v11H406v47.4H391.2z"/>
	<path fill="#B04325" d="M427.8,1.3h14.8V36h0.2c1.8-2.8,4.3-5,7.3-6.6c3-1.7,6.5-2.6,10.2-2.6c10,0,20.4,6.6,20.4,25.3v34.4
		H466V53.6c0-8.4-3.1-14.9-11.3-14.9c-5.8,0-9.8,3.8-11.5,8.3c-0.5,1.3-0.6,2.9-0.6,4.4v35h-14.8V1.3z"/>
	<path fill="#B04325" d="M506.9,61.4c0.4,10.6,8.5,15.1,18,15.1c6.8,0,11.6-1.1,16.2-2.6l2.2,10.1c-5,2.2-12,3.7-20.4,3.7
		c-19,0-30.1-11.6-30.1-29.5c0-16.2,9.8-31.4,28.6-31.4c19,0,25.2,15.6,25.2,28.4c0,2.8-0.2,4.9-0.5,6.2H506.9z M532.6,51.1
		c0.1-5.4-2.3-14.3-12.1-14.3c-9.1,0-13,8.3-13.6,14.3H532.6z"/>
</g>
</svg>
